# This file is brought to you by Roblox Corporation
# Generated by Roblox Studio

mtllib BASePlate.mtl

g Baseplate1

v 991.2 16 -1045.4 
v 991.2 16 1002.6 
v 991.2 0 -1045.4 
v 991.2 0 1002.6 
v -1056.8 16 1002.6 
v 991.2 16 1002.6 
v -1056.8 16 -1045.4 
v 991.2 16 -1045.4 
v 991.2 16 1002.6 
v -1056.8 16 1002.6 
v 991.2 0 1002.6 
v -1056.8 0 1002.6 
v -1056.8 16 1002.6 
v -1056.8 16 -1045.4 
v -1056.8 0 1002.6 
v -1056.8 0 -1045.4 
v -1056.8 0 -1045.4 
v 991.2 0 -1045.4 
v -1056.8 0 1002.6 
v 991.2 0 1002.6 
v -1056.8 16 -1045.4 
v 991.2 16 -1045.4 
v -1056.8 0 -1045.4 
v 991.2 0 -1045.4 

vn 1 0 0 
vn 1 0 0 
vn 1 0 0 
vn 1 0 0 
vn 0 1 0 
vn 0 1 0 
vn 0 1 0 
vn 0 1 0 
vn 0 0 1 
vn 0 0 1 
vn 0 0 1 
vn 0 0 1 
vn -1 0 0 
vn -1 0 0 
vn -1 0 0 
vn -1 0 0 
vn 0 -1 0 
vn 0 -1 0 
vn 0 -1 0 
vn 0 -1 0 
vn 0 0 -1 
vn 0 0 -1 
vn 0 0 -1 
vn 0 0 -1 

vt 258.25 -2.25 
vt 2.25 -2.25 
vt 258.25 -4.25 
vt 2.25 -4.25 
vt 258.25 -2.25 
vt 2.25 -2.25 
vt 258.25 -258.25 
vt 2.25 -258.25 
vt 258.25 -2.25 
vt 2.25 -2.25 
vt 258.25 -4.25 
vt 2.25 -4.25 
vt 258.25 -2.25 
vt 2.25 -2.25 
vt 258.25 -4.25 
vt 2.25 -4.25 
vt 258.25 -2.25 
vt 2.25 -2.25 
vt 258.25 -258.25 
vt 2.25 -258.25 
vt 258.25 -2.25 
vt 2.25 -2.25 
vt 258.25 -4.25 
vt 2.25 -4.25 

usemtl Baseplate1Mtl

f 1/1/1 2/2/2 3/3/3 
f 3/3/3 2/2/2 4/4/4 
f 5/5/5 6/6/6 7/7/7 
f 7/7/7 6/6/6 8/8/8 
f 9/9/9 10/10/10 11/11/11 
f 11/11/11 10/10/10 12/12/12 
f 13/13/13 14/14/14 15/15/15 
f 15/15/15 14/14/14 16/16/16 
f 17/17/17 18/18/18 19/19/19 
f 19/19/19 18/18/18 20/20/20 
f 21/21/21 22/22/22 23/23/23 
f 23/23/23 22/22/22 24/24/24 

g Baseplate2

v -1056.8 16.005 1002.6 
v 991.2 16.005 1002.6 
v -1056.8 16.005 -1045.4 
v 991.2 16.005 -1045.4 

vn 0 1 0 
vn 0 1 0 
vn 0 1 0 
vn 0 1 0 

vt 256 1 
vt 0 1 
vt 256 -255 
vt 0 -255 

usemtl Baseplate2Mtl

f 25/25/25 26/26/26 27/27/27 
f 27/27/27 26/26/26 28/28/28 

